<svg version="1" xmlns="http://www.w3.org/2000/svg" width="346.667" height="346.667" viewBox="0 0 260.000000 260.000000"><path d="M24.9 33.5c0 1.1-.2 3.1-.4 4.5-.7 4.6-.8 31.3-.1 43 .7 12.4.7 12.1 2.5 25.5 1.1 7.5 1 10.4-.2 17.3-2.3 13.2-1.3 24 3.5 39.2 3.9 12.1 9 23 13.9 29.6 3.3 4.5 3.6 5.3 2.1 5.7-1.3.4-1.2.5.5.6 1.2 0 4.5 1.8 7.2 3.8 4.2 3.1 4.8 3.9 3.3 4.5-1.2.5-.8.7 1.3.7 1.7 0 7.1 1.1 12 2.6 8.3 2.3 17 3.2 35.7 3.5 2 0 3.2 1 5.2 4.4 3.3 5.7 7.9 8.5 15.3 9.2 5.2.6 6.9.3 11.5-1.8 5.2-2.4 10.8-7.9 10.8-10.6 0-.7 1.6-1.3 3.8-1.3 21.1-.7 27.2-1.5 38.8-4.9 4.8-1.5 7-1.6 10.4-.9 2.4.5 5 .8 5.9.6.9-.2-.8-.8-3.8-1.2-4.4-.6-5.1-1-3.8-1.9.9-.6 3.5-2.4 5.9-4.1 2.3-1.6 5.4-2.9 6.8-2.9 2.3.1 2.3.1.2-.3-2.3-.4-2.2-.5 1.3-4.6 5.1-6 4.9-5.6 8.8-13.8 9.4-19.5 12.8-37.6 10.1-53.4-1.1-6.6-1.2-13.3-.4-17.2.5-2.1 1.2-6.7 1.5-10.3.4-3.6.9-8.3 1.1-10.5.7-5.5 1.2-47.1.6-51.8-.4-3.4-2.2-5.4-2.2-2.3 0 2.1-6.5 8.4-17.5 17.1C211 55.9 204 61.9 200.9 65l-5.5 5.5-9-4.7c-7.2-3.7-18.3-8.1-23.9-9.4-14.9-3.5-33.9-4.7-49.2-3.1-13.9 1.5-33.7 7.7-44.5 14.1l-4.4 2.5-3.9-4.1c-2.2-2.2-9.4-8.5-16-13.8-13.2-10.8-15.6-13.1-17.9-17.5-1.3-2.4-1.6-2.6-1.7-1zM38.8 199.7c.7.3 1.6.2 1.9-.1.4-.3-.2-.6-1.3-.5-1.1 0-1.4.3-.6.6zM218.3 199.7c.9.2 2.3.2 3 0 .6-.3-.1-.5-1.8-.5-1.6 0-2.2.2-1.2.5zM31.8 200.7c.7.3 1.6.2 1.9-.1.4-.3-.2-.6-1.3-.5-1.1 0-1.4.3-.6.6zM226.8 200.7c.7.3 1.6.2 1.9-.1.4-.3-.2-.6-1.3-.5-1.1 0-1.4.3-.6.6zM51.3 208.7c.9.2 2.3.2 3 0 .6-.3-.1-.5-1.8-.5-1.6 0-2.2.2-1.2.5zM46.8 209.7c.7.3 1.6.2 1.9-.1.4-.3-.2-.6-1.3-.5-1.1 0-1.4.3-.6.6zM215.9 210.6c3.5.8 6.6 1.2 6.8 1 .5-.5-9.2-2.6-11.5-2.5-.9.1 1.2.7 4.7 1.5zM41.8 210.7c.6.2 1.8.2 2.5 0 .6-.3.1-.5-1.3-.5-1.4 0-1.9.2-1.2.5zM36.8 211.7c.6.2 1.8.2 2.5 0 .6-.3.1-.5-1.3-.5-1.4 0-1.9.2-1.2.5zM31.8 212.7c.7.3 1.6.2 1.9-.1.4-.3-.2-.6-1.3-.5-1.1 0-1.4.3-.6.6zM226.8 212.7c.6.2 1.8.2 2.5 0 .6-.3.1-.5-1.3-.5-1.4 0-1.9.2-1.2.5z"/></svg>