<svg version="1" xmlns="http://www.w3.org/2000/svg" width="346.667" height="346.667" viewBox="0 0 260.000000 260.000000"><path d="M.1 75.1c.1 43.1.2 46.8 1.5 40.9 1.9-8.9 8.2-21.3 14.4-28.3l5.2-5.8L11 55.2C5.4 40.5.6 28.3.4 28.1c-.2-.2-.4 20.9-.3 47zM249.1 55l-10.3 26.9 5.2 5.8c6.2 7 12.5 19.4 14.4 28.3 1.3 5.9 1.4 2.2 1.5-40.8.1-25.9 0-47.2-.2-47.2s-5 12.1-10.6 27zM55.7 130.3c-15.7 5.1-19.8 25.5-7.4 36.4 6.6 5.8 15.3 6.8 23.6 2.7 8.8-4.4 12.8-13.6 10.7-24.9-.8-4-6.3-10.8-10.6-13-3.9-2-11.9-2.6-16.3-1.2zM195.6 130c-18.4 5.9-20.7 30.6-3.7 39.2 7.1 3.6 12.1 3.6 19.2 0 18.9-9.5 13.4-37.8-7.7-39.7-2.7-.2-6.2 0-7.8.5zM127.3 138.5c0 3.8.2 5.3.4 3.2.2-2 .2-5.2 0-7-.2-1.7-.4-.1-.4 3.8zM133.3 138.5c0 3.8.2 5.3.4 3.2.2-2 .2-5.2 0-7-.2-1.7-.4-.1-.4 3.8zM124.5 152.8c-.3 2.1-.2 4.9.4 6.2.8 2.1 1 1.4 1-3.8.1-7-.4-8-1.4-2.4zM131.3 155.5c0 3.8.2 5.3.4 3.2.2-2 .2-5.2 0-7-.2-1.7-.4-.1-.4 3.8zM137.2 155.5c0 5.8.1 6.4.8 3.5.5-1.9.5-5.1 0-7-.7-2.9-.8-2.3-.8 3.5zM127.3 172c0 3.6.2 5 .4 3.2.2-1.7.2-4.7 0-6.5-.2-1.7-.4-.3-.4 3.3zM133.3 172.5c0 3.8.2 5.3.4 3.2.2-2 .2-5.2 0-7-.2-1.7-.4-.1-.4 3.8zM139.2 172c0 5.9.1 6.2 1 3.2.8-2.2.8-4.2 0-6.5-.9-2.9-1-2.6-1 3.3zM120.7 167.7c-1.1 1-.8 8.1.3 8.8.6.4 1-1.3 1-4.4 0-5.2-.1-5.6-1.3-4.4zM118.2 187.2c.2.7 2.5 2.7 5 4.4l4.6 3.1-5.6 5.6c-3.1 3.1-5.3 6-4.9 6.4.4.4 3.6-2.1 7-5.5l6.2-6.2 6.2 6.2c3.4 3.4 6.6 5.9 7 5.5.4-.4-1.8-3.3-4.9-6.4l-5.7-5.7 4.6-3c7.7-5.1 7.1-5.6-7.2-5.6-9.7 0-12.6.3-12.3 1.2z"/></svg>