<?xml version="1.0" encoding="utf-8"?>
<!-- Generator: Adobe Illustrator 16.0.0, SVG Export Plug-In . SVG Version: 6.00 Build 0)  -->
<!DOCTYPE svg PUBLIC "-//W3C//DTD SVG 1.1//EN" "http://www.w3.org/Graphics/SVG/1.1/DTD/svg11.dtd">
<svg version="1.1" id="Snowflake" xmlns="http://www.w3.org/2000/svg" xmlns:xlink="http://www.w3.org/1999/xlink" x="0px" y="0px"
	 width="300px" height="259.301px" viewBox="-499.15 280.5 300 259.301" enable-background="new -499.15 280.5 300 259.301"
	 xml:space="preserve">
<g id="V2">
	<path id="Body_1_" fill="#FFFFFF" d="M-290.302,508.25c-2.699,0.899-9.4,0.799-11.3,0.799c-9,0.201-10.899-0.199-17-8.299
		c-2.601-3.4-8-28.701-8-28.701s-41.9-20.399-44.1-23.199c-0.7-1-3.3-6.5-4.1-7.6c-2.2-2.9-2.3-4.5-4.6-7.701
		c-0.9-1.299-1.4-2.899-2.4-4.799c-0.8-1.5-3.5-6.301-4.2-8c-0.8-1.9-1.4-2.9-1.8-5c-0.4-2.301,0-4.301-0.1-6.201
		c-0.1-3.2-0.5-6.1,0-8.2c0.9-3.699,2.9-7-0.3-11.6c-0.7-0.9-1-3.9-1.5-5.2c-1-2.5-1.1-5.1-1.1-8.399c0-1.5,0.4-2.5,1.5-4.9
		c1.9-3.9,0.5-9.3,0.5-9.3c-0.8-2.3-0.9-4.101-1.1-6.5c-0.3-3-0.3-5-1-8.101c-1.2-6,0.3-18,0.6-19.8c1.3,0.601,4.4,2.3,6,3.9
		c1,1,5.4,4.3,6.5,5.6c1.4,1.601,2.5,2.7,3.7,4.3c1.1,1.5,2.1,3.101,3.3,4.301c2,2,1,2.8,4.8,2.699c4-0.199,7.7,0.301,11.6,0.9
		c4.5,0.7,9.699,0.5,14.4,2c2.6,0.8,5.799,1.1,8.5,1.1c1.6,0,3.899-1.1,5.5-1.399c1.799-0.4,2.799-0.9,4.6-1.5
		c2.4-0.8,4.5-1.5,6.5-2.7c1.4-0.8,2.4-1,3.8-1.8c1.601-0.9,6-2.9,7.2-3.5c-2.1,4.2-8,10.3-10.5,14.7c-1.301,2.3-2.6,3.5-3.6,6.399
		c-1,2.9-1.301,6.2-3.101,8.9c-1.101,1.6-0.2,5.7,0.8,7.3c0.4,0.7,1.5,2,3.2,3.4c1.601,1.3,3.7,1.199,5.601,1.899
		c3.199,1.2,6.1,3.3,7.399,3.8c4.101,1.7,2.101,3.9,4.899,5.801c2.4,1.6,16.601,25.399,17.801,27.3c5.3,9.2,15.4,22.1,16.6,33.5
		C-263.001,468.75-287.203,507.15-290.302,508.25z"/>
	<path id="Tail_1_" fill="#FFFFFF" d="M-282.203,504.549c0.601-4.1,23.101-4.799,36.701-4.699c5.699,0.1,8.6,0.1,12.5-0.7
		c5.899-1.2,11.1-6.8,14.1-9.7c2.6-2.5,3.3-4.699,4.5-7c2.1-4.1,2.199-7.5,2.199-12.1c0.101-6.801-3.799-9-6.699-11.301
		c-3.7-2.899-8.6-5.399-8,2.101c0.199,2.601,2,4.101,2.5,6.3c1.8,8.4-3.2,14.6-11.801,18c-4.6,1.801-8.5,1.5-13.5,1.1
		c-4.6-0.399-9.1-3-11.6-5.1c-3.199-2.699-1.199-7.1-0.4-11.199L-282.203,504.549z"/>
	<rect id="Tummy_1_" x="-375.802" y="435.25" fill="#E5E5E5" width="48" height="73"/>
	<path id="Rear_Paw_1_" fill="#FFFFFF" stroke="#E5E5E5" stroke-miterlimit="10" d="M-311.703,509.35c0-2,5.701-4.301,9.9-4.301
		c4.2,0,9.1,1.601,9.1,3.701"/>
	<g id="Front_Paws_1_">
		<path fill="#FFFFFF" d="M-324.802,403.25c-4.199,0-7.6,0.3-7.6,1s-3.4,1-7.6,1h-17c-4.2,0-7.6-0.3-7.6-1s-3.4-1-7.6-1h-7.8
			c-4.2,0-7.8,3.2-7.8,7.4v97.7c0,4.199,3.6,7.9,7.8,7.9h7.8c4.2,0,7.3-3.701,7.3-7.9v-45.9c0-4.199,3.6-7.199,7.8-7.199h17
			c4.2,0,7.101,3,7.101,7.199v45.9c0,4.199,3.799,7.9,8,7.9h7.799c4.201,0,7.201-3.701,7.201-7.9v-97.7c0-4.2-3-7.4-7.201-7.4
			H-324.802L-324.802,403.25z"/>
	</g>
	<path id="Shadow_1_" fill="#E5E5E5" d="M-387.802,401.349c0,0-0.6,14.501,38.2,14.7c49.7,0.301,50.7-22.3,50.7-22.3
		L-387.802,401.349z"/>
	<path id="Back_1_" fill="#E5E5E5" d="M-298.902,421.85c0-3.7-0.1-26.801-0.1-26.801c3,0,29.1,31.601,30,36.9
		C-267.802,439.549-298.902,432.25-298.902,421.85z"/>
	<g id="Face_1_">
		<g id="Left_Ear_3_">
			<path fill="#FFFFFF" d="M-411.802,328.049c0-24.6,0-25,0-25l21,25l-21,21.5V328.049z"/>
			<path fill="#FFA4C9" d="M-411.802,328.049c0-24.6,0-25,0-25l12.8,33.4l-12.8,13.1V328.049z"/>
		</g>
		<g id="Left_Ear_2_">
			<path fill="#FFFFFF" d="M-286.802,328.049c0-24.6,0-25,0-25l-21,25l21,21.5V328.049z"/>
			<path fill="#FFA4C9" d="M-286.802,328.049c0-24.6,0-25,0-25l-12.8,33.4l12.8,13.1V328.049z"/>
		</g>
		<path id="Head_1_" fill="#FFFFFF" d="M-286.802,372.25c0,16.6-13.4,30-30,30h-65c-16.6,0-30-13.4-30-30v-20c0-16.6,13.4-30,30-30
			h65c16.6,0,30,13.4,30,30V372.25z"/>
		<g id="Left_Eye_1_">
			<circle fill="#E0ECFF" cx="-382.402" cy="362.25" r="16.5"/>
			<circle fill="#333333" cx="-382.402" cy="362.25" r="10"/>
		</g>
		<g id="Right_Eye_2_">
			<circle fill="#FFFFAB" cx="-315.402" cy="362.25" r="16.5"/>
			<circle fill="#333333" cx="-315.402" cy="362.25" r="10"/>
		</g>
		<g id="Nose__x26__Mouth_1_">
			<g>
				<path fill="#FFA4C9" d="M-354.102,379.25c-1.7,0-1.9,0.7-0.5,1.6l2.5,1.601c1.4,0.899,3.6,0.899,5,0l2.5-1.601
					c1.399-0.899,1.101-1.6-0.5-1.6H-354.102z"/>
			</g>
			
				<line fill="none" stroke="#FFA4C9" stroke-linecap="round" stroke-linejoin="round" stroke-miterlimit="10" x1="-349.602" y1="382.849" x2="-355.602" y2="388.75"/>
			
				<line fill="none" stroke="#FFA4C9" stroke-linecap="round" stroke-linejoin="round" stroke-miterlimit="10" x1="-349.602" y1="382.849" x2="-343.602" y2="388.75"/>
		</g>
		<g id="Face_fur_1_">
			<g>
				<g>
					<path fill="#E5E5E5" d="M-354.102,369.049c0,0,0.2,0.4,0.3,1.101c0.1,0.699,0.2,1.5,0.2,2.399c0,0.9-0.1,1.8-0.2,2.4
						c-0.1,0.7-0.3,1.1-0.3,1.1s-0.2-0.399-0.3-1.1s-0.2-1.5-0.2-2.4c0-0.899,0.1-1.8,0.2-2.399
						C-354.302,369.45-354.102,369.049-354.102,369.049z"/>
				</g>
				<g>
					<path fill="#E5E5E5" d="M-351.102,369.049c0,0,0.2,0.4,0.3,1.101c0.1,0.699,0.2,1.5,0.2,2.399c0,0.9-0.1,1.8-0.2,2.4
						c-0.1,0.7-0.3,1.1-0.3,1.1s-0.2-0.399-0.3-1.1s-0.2-1.5-0.2-2.4c0-0.899,0.1-1.8,0.2-2.399
						C-351.302,369.45-351.102,369.049-351.102,369.049z"/>
				</g>
				<g>
					<path fill="#E5E5E5" d="M-348.102,369.049c0,0,0.2,0.4,0.3,1.101c0.1,0.699,0.2,1.5,0.2,2.399c0,0.9-0.1,1.8-0.2,2.4
						c-0.1,0.7-0.3,1.1-0.3,1.1s-0.2-0.399-0.3-1.1s-0.2-1.5-0.2-2.4c0-0.899,0.1-1.8,0.2-2.399
						C-348.302,369.45-348.102,369.049-348.102,369.049z"/>
				</g>
				<g>
					<path fill="#E5E5E5" d="M-345.102,369.049c0,0,0.2,0.4,0.3,1.101c0.1,0.699,0.2,1.5,0.2,2.399c0,0.9-0.101,1.8-0.2,2.4
						c-0.1,0.7-0.3,1.1-0.3,1.1s-0.2-0.399-0.3-1.1s-0.2-1.5-0.2-2.4c0-0.899,0.101-1.8,0.2-2.399
						C-345.302,369.45-345.102,369.049-345.102,369.049z"/>
				</g>
			</g>
			<g>
				<g>
					<path fill="#E5E5E5" d="M-352.102,361.049c0,0,0.2,0.4,0.3,1.101c0.1,0.699,0.2,1.5,0.2,2.399c0,0.9-0.1,1.8-0.2,2.4
						c-0.1,0.7-0.3,1.1-0.3,1.1s-0.2-0.399-0.3-1.1s-0.2-1.5-0.2-2.4c0-0.899,0.1-1.8,0.2-2.399
						C-352.302,361.45-352.102,361.049-352.102,361.049z"/>
				</g>
				<g>
					<path fill="#E5E5E5" d="M-349.102,361.049c0,0,0.2,0.4,0.3,1.101c0.1,0.699,0.2,1.5,0.2,2.399c0,0.9-0.1,1.8-0.2,2.4
						c-0.1,0.7-0.3,1.1-0.3,1.1s-0.2-0.399-0.3-1.1s-0.2-1.5-0.2-2.4c0-0.899,0.1-1.8,0.2-2.399
						C-349.302,361.45-349.102,361.049-349.102,361.049z"/>
				</g>
				<g>
					<path fill="#E5E5E5" d="M-346.102,361.049c0,0,0.2,0.4,0.3,1.101c0.1,0.699,0.2,1.5,0.2,2.399c0,0.9-0.101,1.8-0.2,2.4
						c-0.1,0.7-0.3,1.1-0.3,1.1s-0.2-0.399-0.3-1.1s-0.2-1.5-0.2-2.4c0-0.899,0.101-1.8,0.2-2.399
						C-346.302,361.45-346.102,361.049-346.102,361.049z"/>
				</g>
			</g>
			<g>
				<g>
					<path fill="#E5E5E5" d="M-351.102,353.049c0,0,0.2,0.4,0.3,1.101c0.1,0.699,0.2,1.5,0.2,2.399c0,0.9-0.1,1.8-0.2,2.4
						c-0.1,0.7-0.3,1.1-0.3,1.1s-0.2-0.399-0.3-1.1s-0.2-1.5-0.2-2.4c0-0.899,0.1-1.8,0.2-2.399
						C-351.302,353.45-351.102,353.049-351.102,353.049z"/>
				</g>
				<g>
					<path fill="#E5E5E5" d="M-348.102,353.049c0,0,0.2,0.4,0.3,1.101c0.1,0.699,0.2,1.5,0.2,2.399c0,0.9-0.1,1.8-0.2,2.4
						c-0.1,0.7-0.3,1.1-0.3,1.1s-0.2-0.399-0.3-1.1s-0.2-1.5-0.2-2.4c0-0.899,0.1-1.8,0.2-2.399
						C-348.302,353.45-348.102,353.049-348.102,353.049z"/>
				</g>
			</g>
		</g>
	</g>
	<g id="Claws_1_">
		<g>
			<g>
				<path fill="#E5E5E5" d="M-382.502,507.049c0,0,0.3,0.601,0.4,1.601c0.2,1,0.3,2.3,0.3,3.5c0,1.3-0.1,2.601-0.3,3.5
					c-0.2,1-0.4,1.601-0.4,1.601s-0.3-0.601-0.4-1.601c-0.2-1-0.3-2.3-0.3-3.5c0-1.3,0.1-2.601,0.3-3.5
					C-382.802,507.75-382.502,507.049-382.502,507.049z"/>
			</g>
			<g>
				<path fill="#E5E5E5" d="M-377.802,507.049c0,0,0.3,0.601,0.4,1.601c0.2,1,0.3,2.3,0.3,3.5c0,1.3-0.1,2.601-0.3,3.5
					c-0.2,1-0.4,1.601-0.4,1.601s-0.3-0.601-0.4-1.601c-0.2-1-0.3-2.3-0.3-3.5c0-1.3,0.1-2.601,0.3-3.5
					C-378.002,507.75-377.802,507.049-377.802,507.049z"/>
			</g>
			<g>
				<path fill="#E5E5E5" d="M-373.002,507.049c0,0,0.3,0.601,0.4,1.601c0.2,1,0.3,2.3,0.3,3.5c0,1.3-0.1,2.601-0.3,3.5
					c-0.2,1-0.4,1.601-0.4,1.601s-0.3-0.601-0.4-1.601c-0.2-1-0.3-2.3-0.3-3.5c0-1.3,0.1-2.601,0.3-3.5
					C-373.302,507.75-373.002,507.049-373.002,507.049z"/>
			</g>
		</g>
		<g>
			<g>
				<path fill="#E5E5E5" d="M-325.602,507.049c0,0,0.3,0.601,0.399,1.601c0.201,1,0.301,2.3,0.301,3.5c0,1.3-0.1,2.601-0.301,3.5
					c-0.199,1-0.399,1.601-0.399,1.601s-0.3-0.601-0.399-1.601c-0.201-1-0.301-2.3-0.301-3.5c0-1.3,0.1-2.601,0.301-3.5
					C-325.902,507.75-325.602,507.049-325.602,507.049z"/>
			</g>
			<g>
				<path fill="#E5E5E5" d="M-320.902,507.049c0,0,0.3,0.601,0.4,1.601c0.199,1,0.299,2.3,0.299,3.5c0,1.3-0.1,2.601-0.299,3.5
					c-0.201,1-0.4,1.601-0.4,1.601s-0.301-0.601-0.4-1.601c-0.199-1-0.3-2.3-0.3-3.5c0-1.3,0.101-2.601,0.3-3.5
					C-321.203,507.75-320.902,507.049-320.902,507.049z"/>
			</g>
			<g>
				<path fill="#E5E5E5" d="M-316.203,507.049c0,0,0.301,0.601,0.4,1.601c0.2,1,0.301,2.3,0.301,3.5c0,1.3-0.101,2.601-0.301,3.5
					c-0.199,1-0.4,1.601-0.4,1.601s-0.299-0.601-0.399-1.601c-0.2-1-0.3-2.3-0.3-3.5c0-1.3,0.1-2.601,0.3-3.5
					S-316.203,507.049-316.203,507.049z"/>
			</g>
		</g>
	</g>
	<ellipse id="Hindquarters_1_" fill="#FFFFFF" cx="-288.802" cy="462.75" rx="27.301" ry="44.7"/>
	<g id="Body_fur_1_">
		<g>
			<g>
				<path fill="#E5E5E5" d="M-383.102,438.95c0,0,0.3,0.6,0.4,1.6c0.2,1,0.3,2.301,0.3,3.5c0,1.301-0.1,2.601-0.3,3.5
					c-0.2,1-0.4,1.601-0.4,1.601s-0.3-0.601-0.4-1.601c-0.2-1-0.3-2.299-0.3-3.5c0-1.299,0.1-2.6,0.3-3.5
					C-383.402,439.65-383.102,438.95-383.102,438.95z"/>
			</g>
			<g>
				<path fill="#E5E5E5" d="M-378.402,438.95c0,0,0.3,0.6,0.4,1.6c0.2,1,0.3,2.301,0.3,3.5c0,1.301-0.1,2.601-0.3,3.5
					c-0.2,1-0.4,1.601-0.4,1.601s-0.3-0.601-0.4-1.601c-0.2-1-0.3-2.299-0.3-3.5c0-1.299,0.1-2.6,0.3-3.5
					C-378.602,439.65-378.402,438.95-378.402,438.95z"/>
			</g>
			<g>
				<path fill="#E5E5E5" d="M-373.602,438.95c0,0,0.3,0.6,0.4,1.6c0.2,1,0.3,2.301,0.3,3.5c0,1.301-0.1,2.601-0.3,3.5
					c-0.2,1-0.4,1.601-0.4,1.601s-0.3-0.601-0.4-1.601c-0.2-1-0.3-2.299-0.3-3.5c0-1.299,0.1-2.6,0.3-3.5
					C-373.902,439.65-373.602,438.95-373.602,438.95z"/>
			</g>
			<g>
				<path fill="#E5E5E5" d="M-368.902,438.95c0,0,0.3,0.6,0.4,1.6c0.2,1,0.3,2.301,0.3,3.5c0,1.301-0.1,2.601-0.3,3.5
					c-0.2,1-0.4,1.601-0.4,1.601s-0.3-0.601-0.4-1.601c-0.2-1-0.3-2.299-0.3-3.5c0-1.299,0.1-2.6,0.3-3.5
					C-369.102,439.65-368.902,438.95-368.902,438.95z"/>
			</g>
		</g>
		<g>
			<g>
				<path fill="#E5E5E5" d="M-328.402,438.95c0,0,0.3,0.6,0.4,1.6c0.199,1,0.299,2.301,0.299,3.5c0,1.301-0.1,2.601-0.299,3.5
					c-0.201,1-0.4,1.601-0.4,1.601s-0.301-0.601-0.4-1.601c-0.199-1-0.3-2.299-0.3-3.5c0-1.299,0.101-2.6,0.3-3.5
					C-328.602,439.65-328.402,438.95-328.402,438.95z"/>
			</g>
			<g>
				<path fill="#E5E5E5" d="M-323.602,438.95c0,0,0.3,0.6,0.399,1.6c0.201,1,0.301,2.301,0.301,3.5c0,1.301-0.1,2.601-0.301,3.5
					c-0.199,1-0.399,1.601-0.399,1.601s-0.3-0.601-0.399-1.601c-0.201-1-0.301-2.299-0.301-3.5c0-1.299,0.1-2.6,0.301-3.5
					C-323.902,439.65-323.602,438.95-323.602,438.95z"/>
			</g>
			<g>
				<path fill="#E5E5E5" d="M-318.902,438.95c0,0,0.3,0.6,0.4,1.6c0.199,1,0.299,2.301,0.299,3.5c0,1.301-0.1,2.601-0.299,3.5
					c-0.201,1-0.4,1.601-0.4,1.601s-0.301-0.601-0.4-1.601c-0.199-1-0.3-2.299-0.3-3.5c0-1.299,0.101-2.6,0.3-3.5
					C-319.203,439.65-318.902,438.95-318.902,438.95z"/>
			</g>
			<g>
				<path fill="#E5E5E5" d="M-314.203,438.95c0,0,0.301,0.6,0.4,1.6c0.2,1,0.301,2.301,0.301,3.5c0,1.301-0.101,2.601-0.301,3.5
					c-0.199,1-0.4,1.601-0.4,1.601s-0.299-0.601-0.399-1.601c-0.2-1-0.3-2.299-0.3-3.5c0-1.299,0.1-2.6,0.3-3.5
					C-314.402,439.65-314.203,438.95-314.203,438.95z"/>
			</g>
		</g>
		<g>
			<g>
				<path fill="#E5E5E5" d="M-288.102,456.95c0,0,0.3,0.6,0.399,1.6c0.201,1,0.301,2.301,0.301,3.5c0,1.301-0.1,2.601-0.301,3.5
					c-0.199,1-0.399,1.601-0.399,1.601s-0.3-0.601-0.399-1.601c-0.201-1-0.301-2.299-0.301-3.5c0-1.299,0.1-2.6,0.301-3.5
					C-288.302,457.549-288.102,456.95-288.102,456.95z"/>
			</g>
			<g>
				<path fill="#E5E5E5" d="M-283.302,456.95c0,0,0.301,0.6,0.4,1.6c0.199,1,0.3,2.301,0.3,3.5c0,1.301-0.101,2.601-0.3,3.5
					c-0.2,1-0.4,1.601-0.4,1.601s-0.3-0.601-0.4-1.601c-0.199-1-0.299-2.299-0.299-3.5c0-1.299,0.1-2.6,0.299-3.5
					C-283.602,457.549-283.302,456.95-283.302,456.95z"/>
			</g>
			<g>
				<path fill="#E5E5E5" d="M-278.602,456.95c0,0,0.3,0.6,0.399,1.6c0.201,1,0.301,2.301,0.301,3.5c0,1.301-0.1,2.601-0.301,3.5
					c-0.199,1-0.399,1.601-0.399,1.601s-0.3-0.601-0.399-1.601c-0.201-1-0.301-2.299-0.301-3.5c0-1.299,0.1-2.6,0.301-3.5
					C-278.902,457.549-278.602,456.95-278.602,456.95z"/>
			</g>
			<g>
				<path fill="#E5E5E5" d="M-273.902,456.95c0,0,0.3,0.6,0.4,1.6c0.199,1,0.299,2.301,0.299,3.5c0,1.301-0.1,2.601-0.299,3.5
					c-0.201,1-0.4,1.601-0.4,1.601s-0.301-0.601-0.4-1.601c-0.199-1-0.3-2.299-0.3-3.5c0-1.299,0.101-2.6,0.3-3.5
					C-274.102,457.549-273.902,456.95-273.902,456.95z"/>
			</g>
		</g>
		<g>
			<g>
				<path fill="#E5E5E5" d="M-284.902,470.15c0,0,0.3,0.601,0.4,1.601c0.199,1,0.299,2.299,0.299,3.5c0,1.299-0.1,2.6-0.299,3.5
					c-0.201,1-0.4,1.6-0.4,1.6s-0.301-0.6-0.4-1.6c-0.199-1-0.3-2.301-0.3-3.5c0-1.301,0.101-2.601,0.3-3.5
					C-285.203,470.85-284.902,470.15-284.902,470.15z"/>
			</g>
			<g>
				<path fill="#E5E5E5" d="M-280.203,470.15c0,0,0.301,0.601,0.4,1.601c0.2,1,0.301,2.299,0.301,3.5c0,1.299-0.101,2.6-0.301,3.5
					c-0.199,1-0.4,1.6-0.4,1.6s-0.299-0.6-0.399-1.6c-0.2-1-0.3-2.301-0.3-3.5c0-1.301,0.1-2.601,0.3-3.5
					C-280.402,470.85-280.203,470.15-280.203,470.15z"/>
			</g>
			<g>
				<path fill="#E5E5E5" d="M-275.402,470.15c0,0,0.3,0.601,0.4,1.601c0.199,1,0.299,2.299,0.299,3.5c0,1.299-0.1,2.6-0.299,3.5
					c-0.201,1-0.4,1.6-0.4,1.6s-0.301-0.6-0.4-1.6c-0.199-1-0.3-2.301-0.3-3.5c0-1.301,0.101-2.601,0.3-3.5
					C-275.703,470.85-275.402,470.15-275.402,470.15z"/>
			</g>
		</g>
	</g>
</g>
</svg>
