<?xml version="1.0" encoding="utf-8"?>
<!-- Generator: Adobe Illustrator 16.0.0, SVG Export Plug-In . SVG Version: 6.00 Build 0)  -->
<!DOCTYPE svg PUBLIC "-//W3C//DTD SVG 1.1//EN" "http://www.w3.org/Graphics/SVG/1.1/DTD/svg11.dtd">
<svg version="1.1" id="Snowflake" xmlns="http://www.w3.org/2000/svg" xmlns:xlink="http://www.w3.org/1999/xlink" x="0px" y="0px"
	 width="333px" height="282px" viewBox="0 0 333 282" style="enable-background:new 0 0 333 282;" xml:space="preserve">
<style type="text/css">
<![CDATA[
	.st0{fill:#E0ECFF;}
	.st1{fill:#E5E5E5;}
	.st2{fill:#FFA4C9;stroke:#FFA4C9;stroke-linecap:round;stroke-linejoin:round;stroke-miterlimit:10;}
	.st3{fill:#FFFFFF;stroke:#E5E5E5;stroke-width:0.5;stroke-miterlimit:10;}
	.st4{fill:#FFA4C9;}
	.st5{fill:#FFFFAB;}
	.st6{fill:#FFFFFF;}
	.st7{fill:#333333;}
	.st8{fill:none;stroke:#FFFFFF;stroke-width:10;stroke-linecap:round;stroke-linejoin:round;stroke-miterlimit:10;}
]]>
</style>
<g>
	<g id="Body">
		<rect id="Tummy" x="137" y="177" class="st1" width="30" height="49"/>
		<polygon id="Back" class="st1" points="171.1,179 179.5,149 189.6,175.8 		"/>
		<circle id="Hindquarters" class="st6" cx="191.1" cy="200.2" r="26.5"/>
		<path id="Rear_Paw" class="st3" d="M175.6,226.3c0-2,3.4-3.7,7.6-3.7c4.2,0,7.6,1.6,7.6,3.7"/>
		<g id="Front_Paws">
			<path class="st6" d="M169.8,146c-2.9,0-5.3,0.5-5.3,1s-2.4,1-5.3,1h-10.4c-2.9,0-5.3-0.5-5.3-1s-2.4-1-5.3-1h-4.4
				c-2.9,0-5.8,2.4-5.8,5.3v74.4c0,2.9,2.9,5.3,5.8,5.3h4.4c2.9,0,4.8-2.4,4.8-5.3v-35.4c0-2.9,2.9-5.3,5.8-5.3h10.4
				c2.9,0,4.8,2.4,4.8,5.3v35.4c0,2.9,2.9,5.3,5.8,5.3h4.4c2.9,0,4.8-2.4,4.8-5.3v-74.4c0-2.9-1.9-5.3-4.8-5.3H169.8z"/>
		</g>
		<path id="Tail" class="st8" d="M238.8,151.7c11.7,42-16.9,67.7-34.7,67.7"/>
		<g id="Claws">
			<g>
				<g>
					<path class="st1" d="M133,225c0,0,0.2,0.4,0.3,1.1c0.1,0.7,0.2,1.5,0.2,2.4c0,0.9-0.1,1.8-0.2,2.4c-0.1,0.7-0.3,1.1-0.3,1.1
						s-0.2-0.4-0.3-1.1c-0.1-0.7-0.2-1.5-0.2-2.4c0-0.9,0.1-1.8,0.2-2.4C132.8,225.4,133,225,133,225z"/>
				</g>
				<g>
					<path class="st1" d="M136,225c0,0,0.2,0.4,0.3,1.1c0.1,0.7,0.2,1.5,0.2,2.4c0,0.9-0.1,1.8-0.2,2.4c-0.1,0.7-0.3,1.1-0.3,1.1
						s-0.2-0.4-0.3-1.1c-0.1-0.7-0.2-1.5-0.2-2.4c0-0.9,0.1-1.8,0.2-2.4C135.8,225.4,136,225,136,225z"/>
				</g>
				<g>
					<path class="st1" d="M139,225c0,0,0.2,0.4,0.3,1.1c0.1,0.7,0.2,1.5,0.2,2.4c0,0.9-0.1,1.8-0.2,2.4c-0.1,0.7-0.3,1.1-0.3,1.1
						s-0.2-0.4-0.3-1.1c-0.1-0.7-0.2-1.5-0.2-2.4c0-0.9,0.1-1.8,0.2-2.4C138.8,225.4,139,225,139,225z"/>
				</g>
			</g>
			<g>
				<g>
					<path class="st1" d="M169,225c0,0,0.2,0.4,0.3,1.1c0.1,0.7,0.2,1.5,0.2,2.4c0,0.9-0.1,1.8-0.2,2.4c-0.1,0.7-0.3,1.1-0.3,1.1
						s-0.2-0.4-0.3-1.1c-0.1-0.7-0.2-1.5-0.2-2.4c0-0.9,0.1-1.8,0.2-2.4C168.8,225.4,169,225,169,225z"/>
				</g>
				<g>
					<path class="st1" d="M172,225c0,0,0.2,0.4,0.3,1.1c0.1,0.7,0.2,1.5,0.2,2.4c0,0.9-0.1,1.8-0.2,2.4c-0.1,0.7-0.3,1.1-0.3,1.1
						s-0.2-0.4-0.3-1.1c-0.1-0.7-0.2-1.5-0.2-2.4c0-0.9,0.1-1.8,0.2-2.4C171.8,225.4,172,225,172,225z"/>
				</g>
				<g>
					<path class="st1" d="M175,225c0,0,0.2,0.4,0.3,1.1c0.1,0.7,0.2,1.5,0.2,2.4c0,0.9-0.1,1.8-0.2,2.4c-0.1,0.7-0.3,1.1-0.3,1.1
						s-0.2-0.4-0.3-1.1c-0.1-0.7-0.2-1.5-0.2-2.4c0-0.9,0.1-1.8,0.2-2.4C174.8,225.4,175,225,175,225z"/>
				</g>
			</g>
		</g>
		<g id="Body_fur">
			<g>
				<g>
					<path class="st1" d="M132,172c0,0,0.2,0.4,0.3,1.1c0.1,0.7,0.2,1.5,0.2,2.4c0,0.9-0.1,1.8-0.2,2.4c-0.1,0.7-0.3,1.1-0.3,1.1
						s-0.2-0.4-0.3-1.1c-0.1-0.7-0.2-1.5-0.2-2.4c0-0.9,0.1-1.8,0.2-2.4C131.8,172.4,132,172,132,172z"/>
				</g>
				<g>
					<path class="st1" d="M135,172c0,0,0.2,0.4,0.3,1.1c0.1,0.7,0.2,1.5,0.2,2.4c0,0.9-0.1,1.8-0.2,2.4c-0.1,0.7-0.3,1.1-0.3,1.1
						s-0.2-0.4-0.3-1.1c-0.1-0.7-0.2-1.5-0.2-2.4c0-0.9,0.1-1.8,0.2-2.4C134.8,172.4,135,172,135,172z"/>
				</g>
				<g>
					<path class="st1" d="M138,172c0,0,0.2,0.4,0.3,1.1c0.1,0.7,0.2,1.5,0.2,2.4c0,0.9-0.1,1.8-0.2,2.4c-0.1,0.7-0.3,1.1-0.3,1.1
						s-0.2-0.4-0.3-1.1c-0.1-0.7-0.2-1.5-0.2-2.4c0-0.9,0.1-1.8,0.2-2.4C137.8,172.4,138,172,138,172z"/>
				</g>
				<g>
					<path class="st1" d="M141,172c0,0,0.2,0.4,0.3,1.1c0.1,0.7,0.2,1.5,0.2,2.4c0,0.9-0.1,1.8-0.2,2.4c-0.1,0.7-0.3,1.1-0.3,1.1
						s-0.2-0.4-0.3-1.1c-0.1-0.7-0.2-1.5-0.2-2.4c0-0.9,0.1-1.8,0.2-2.4C140.8,172.4,141,172,141,172z"/>
				</g>
			</g>
			<g>
				<g>
					<path class="st1" d="M166,172c0,0,0.2,0.4,0.3,1.1c0.1,0.7,0.2,1.5,0.2,2.4c0,0.9-0.1,1.8-0.2,2.4c-0.1,0.7-0.3,1.1-0.3,1.1
						s-0.2-0.4-0.3-1.1c-0.1-0.7-0.2-1.5-0.2-2.4c0-0.9,0.1-1.8,0.2-2.4C165.8,172.4,166,172,166,172z"/>
				</g>
				<g>
					<path class="st1" d="M169,172c0,0,0.2,0.4,0.3,1.1c0.1,0.7,0.2,1.5,0.2,2.4c0,0.9-0.1,1.8-0.2,2.4c-0.1,0.7-0.3,1.1-0.3,1.1
						s-0.2-0.4-0.3-1.1c-0.1-0.7-0.2-1.5-0.2-2.4c0-0.9,0.1-1.8,0.2-2.4C168.8,172.4,169,172,169,172z"/>
				</g>
				<g>
					<path class="st1" d="M172,172c0,0,0.2,0.4,0.3,1.1c0.1,0.7,0.2,1.5,0.2,2.4c0,0.9-0.1,1.8-0.2,2.4c-0.1,0.7-0.3,1.1-0.3,1.1
						s-0.2-0.4-0.3-1.1c-0.1-0.7-0.2-1.5-0.2-2.4c0-0.9,0.1-1.8,0.2-2.4C171.8,172.4,172,172,172,172z"/>
				</g>
				<g>
					<path class="st1" d="M175,172c0,0,0.2,0.4,0.3,1.1c0.1,0.7,0.2,1.5,0.2,2.4c0,0.9-0.1,1.8-0.2,2.4c-0.1,0.7-0.3,1.1-0.3,1.1
						s-0.2-0.4-0.3-1.1c-0.1-0.7-0.2-1.5-0.2-2.4c0-0.9,0.1-1.8,0.2-2.4C174.8,172.4,175,172,175,172z"/>
				</g>
			</g>
			<g>
				<g>
					<path class="st1" d="M201,193c0,0,0.2,0.4,0.3,1.1c0.1,0.7,0.2,1.5,0.2,2.4c0,0.9-0.1,1.8-0.2,2.4c-0.1,0.7-0.3,1.1-0.3,1.1
						s-0.2-0.4-0.3-1.1c-0.1-0.7-0.2-1.5-0.2-2.4c0-0.9,0.1-1.8,0.2-2.4C200.8,193.4,201,193,201,193z"/>
				</g>
				<g>
					<path class="st1" d="M204,193c0,0,0.2,0.4,0.3,1.1c0.1,0.7,0.2,1.5,0.2,2.4c0,0.9-0.1,1.8-0.2,2.4c-0.1,0.7-0.3,1.1-0.3,1.1
						s-0.2-0.4-0.3-1.1c-0.1-0.7-0.2-1.5-0.2-2.4c0-0.9,0.1-1.8,0.2-2.4C203.8,193.4,204,193,204,193z"/>
				</g>
				<g>
					<path class="st1" d="M207,193c0,0,0.2,0.4,0.3,1.1c0.1,0.7,0.2,1.5,0.2,2.4c0,0.9-0.1,1.8-0.2,2.4c-0.1,0.7-0.3,1.1-0.3,1.1
						s-0.2-0.4-0.3-1.1c-0.1-0.7-0.2-1.5-0.2-2.4c0-0.9,0.1-1.8,0.2-2.4C206.8,193.4,207,193,207,193z"/>
				</g>
				<g>
					<path class="st1" d="M210,193c0,0,0.2,0.4,0.3,1.1c0.1,0.7,0.2,1.5,0.2,2.4c0,0.9-0.1,1.8-0.2,2.4c-0.1,0.7-0.3,1.1-0.3,1.1
						s-0.2-0.4-0.3-1.1c-0.1-0.7-0.2-1.5-0.2-2.4c0-0.9,0.1-1.8,0.2-2.4C209.8,193.4,210,193,210,193z"/>
				</g>
			</g>
			<g>
				<g>
					<path class="st1" d="M203,202c0,0,0.2,0.4,0.3,1.1c0.1,0.7,0.2,1.5,0.2,2.4c0,0.9-0.1,1.8-0.2,2.4c-0.1,0.7-0.3,1.1-0.3,1.1
						s-0.2-0.4-0.3-1.1c-0.1-0.7-0.2-1.5-0.2-2.4c0-0.9,0.1-1.8,0.2-2.4C202.8,202.4,203,202,203,202z"/>
				</g>
				<g>
					<path class="st1" d="M206,202c0,0,0.2,0.4,0.3,1.1c0.1,0.7,0.2,1.5,0.2,2.4c0,0.9-0.1,1.8-0.2,2.4c-0.1,0.7-0.3,1.1-0.3,1.1
						s-0.2-0.4-0.3-1.1c-0.1-0.7-0.2-1.5-0.2-2.4c0-0.9,0.1-1.8,0.2-2.4C205.8,202.4,206,202,206,202z"/>
				</g>
				<g>
					<path class="st1" d="M209,202c0,0,0.2,0.4,0.3,1.1c0.1,0.7,0.2,1.5,0.2,2.4c0,0.9-0.1,1.8-0.2,2.4c-0.1,0.7-0.3,1.1-0.3,1.1
						s-0.2-0.4-0.3-1.1c-0.1-0.7-0.2-1.5-0.2-2.4c0-0.9,0.1-1.8,0.2-2.4C208.8,202.4,209,202,209,202z"/>
				</g>
			</g>
		</g>
		<polygon id="Shadow" class="st1" points="131,149 154.7,164.7 178.4,149 		"/>
	</g>
	<g id="Face">
		<g id="Left_Ear">
			<path class="st6" d="M91,75c0-24.6,0-25,0-25l21,25L91,96.5V75z"/>
			<path class="st4" d="M91,75c0-24.6,0-25,0-25l12.8,33.4L91,96.5V75z"/>
		</g>
		<g id="Left_Ear_1_">
			<path class="st6" d="M216,75c0-24.6,0-25,0-25l-21,25l21,21.5V75z"/>
			<path class="st4" d="M216,75c0-24.6,0-25,0-25l-12.8,33.4L216,96.5V75z"/>
		</g>
		<path id="Head" class="st6" d="M216,119c0,16.6-13.4,30-30,30h-65c-16.6,0-30-13.4-30-30V99c0-16.6,13.4-30,30-30h65
			c16.6,0,30,13.4,30,30V119z"/>
		<g id="Left_Eye">
			<circle class="st0" cx="120.6" cy="109.2" r="16.5"/>
			<circle class="st7" cx="120.6" cy="109.2" r="10"/>
		</g>
		<g id="Right_Eye_1_">
			<circle class="st5" cx="187.6" cy="109.2" r="16.5"/>
			<circle class="st7" cx="187.6" cy="109.2" r="10"/>
		</g>
		<g id="Nose__x26__Mouth">
			<g>
				<path class="st4" d="M149,126c-1.6,0-1.9,0.7-0.5,1.7l2.5,1.7c1.4,0.9,3.6,0.9,5,0l2.5-1.7c1.4-0.9,1.1-1.7-0.5-1.7H149z"/>
			</g>
			<line class="st2" x1="153.5" y1="129.8" x2="147.5" y2="135.7"/>
			<line class="st2" x1="153.5" y1="129.8" x2="159.5" y2="135.7"/>
		</g>
		<g id="Face_fur">
			<g>
				<g>
					<path class="st1" d="M149,116c0,0,0.2,0.4,0.3,1.1c0.1,0.7,0.2,1.5,0.2,2.4c0,0.9-0.1,1.8-0.2,2.4c-0.1,0.7-0.3,1.1-0.3,1.1
						s-0.2-0.4-0.3-1.1c-0.1-0.7-0.2-1.5-0.2-2.4c0-0.9,0.1-1.8,0.2-2.4C148.8,116.4,149,116,149,116z"/>
				</g>
				<g>
					<path class="st1" d="M152,116c0,0,0.2,0.4,0.3,1.1c0.1,0.7,0.2,1.5,0.2,2.4c0,0.9-0.1,1.8-0.2,2.4c-0.1,0.7-0.3,1.1-0.3,1.1
						s-0.2-0.4-0.3-1.1c-0.1-0.7-0.2-1.5-0.2-2.4c0-0.9,0.1-1.8,0.2-2.4C151.8,116.4,152,116,152,116z"/>
				</g>
				<g>
					<path class="st1" d="M155,116c0,0,0.2,0.4,0.3,1.1c0.1,0.7,0.2,1.5,0.2,2.4c0,0.9-0.1,1.8-0.2,2.4c-0.1,0.7-0.3,1.1-0.3,1.1
						s-0.2-0.4-0.3-1.1c-0.1-0.7-0.2-1.5-0.2-2.4c0-0.9,0.1-1.8,0.2-2.4C154.8,116.4,155,116,155,116z"/>
				</g>
				<g>
					<path class="st1" d="M158,116c0,0,0.2,0.4,0.3,1.1c0.1,0.7,0.2,1.5,0.2,2.4c0,0.9-0.1,1.8-0.2,2.4c-0.1,0.7-0.3,1.1-0.3,1.1
						s-0.2-0.4-0.3-1.1c-0.1-0.7-0.2-1.5-0.2-2.4c0-0.9,0.1-1.8,0.2-2.4C157.8,116.4,158,116,158,116z"/>
				</g>
			</g>
			<g>
				<g>
					<path class="st1" d="M151,108c0,0,0.2,0.4,0.3,1.1c0.1,0.7,0.2,1.5,0.2,2.4c0,0.9-0.1,1.8-0.2,2.4c-0.1,0.7-0.3,1.1-0.3,1.1
						s-0.2-0.4-0.3-1.1c-0.1-0.7-0.2-1.5-0.2-2.4c0-0.9,0.1-1.8,0.2-2.4C150.8,108.4,151,108,151,108z"/>
				</g>
				<g>
					<path class="st1" d="M154,108c0,0,0.2,0.4,0.3,1.1c0.1,0.7,0.2,1.5,0.2,2.4c0,0.9-0.1,1.8-0.2,2.4c-0.1,0.7-0.3,1.1-0.3,1.1
						s-0.2-0.4-0.3-1.1c-0.1-0.7-0.2-1.5-0.2-2.4c0-0.9,0.1-1.8,0.2-2.4C153.8,108.4,154,108,154,108z"/>
				</g>
				<g>
					<path class="st1" d="M157,108c0,0,0.2,0.4,0.3,1.1c0.1,0.7,0.2,1.5,0.2,2.4c0,0.9-0.1,1.8-0.2,2.4c-0.1,0.7-0.3,1.1-0.3,1.1
						s-0.2-0.4-0.3-1.1c-0.1-0.7-0.2-1.5-0.2-2.4c0-0.9,0.1-1.8,0.2-2.4C156.8,108.4,157,108,157,108z"/>
				</g>
			</g>
			<g>
				<g>
					<path class="st1" d="M152,100c0,0,0.2,0.4,0.3,1.1c0.1,0.7,0.2,1.5,0.2,2.4c0,0.9-0.1,1.8-0.2,2.4c-0.1,0.7-0.3,1.1-0.3,1.1
						s-0.2-0.4-0.3-1.1c-0.1-0.7-0.2-1.5-0.2-2.4c0-0.9,0.1-1.8,0.2-2.4C151.8,100.4,152,100,152,100z"/>
				</g>
				<g>
					<path class="st1" d="M155,100c0,0,0.2,0.4,0.3,1.1c0.1,0.7,0.2,1.5,0.2,2.4c0,0.9-0.1,1.8-0.2,2.4c-0.1,0.7-0.3,1.1-0.3,1.1
						s-0.2-0.4-0.3-1.1c-0.1-0.7-0.2-1.5-0.2-2.4c0-0.9,0.1-1.8,0.2-2.4C154.8,100.4,155,100,155,100z"/>
				</g>
			</g>
		</g>
	</g>
</g>
</svg>
