<?xml version="1.0" encoding="utf-8"?>
<!-- Generator: Adobe Illustrator 16.0.0, SVG Export Plug-In . SVG Version: 6.00 Build 0)  -->
<!DOCTYPE svg PUBLIC "-//W3C//DTD SVG 1.1//EN" "http://www.w3.org/Graphics/SVG/1.1/DTD/svg11.dtd">
<svg version="1.1" id="Snowflake" xmlns="http://www.w3.org/2000/svg" xmlns:xlink="http://www.w3.org/1999/xlink" x="0px" y="0px"
	 width="308px" height="282px" viewBox="0 0 308 282" style="enable-background:new 0 0 308 282;" xml:space="preserve">
<style type="text/css">
<![CDATA[
	.st0{fill:url(#Shadow_1_);}
	.st1{fill:#E0ECFF;}
	.st2{fill:#E5E5E5;}
	.st3{fill:#E6E6E6;}
	.st4{fill:#FFFFFF;stroke:#E5E5E5;stroke-miterlimit:10;}
	.st5{display:none;fill:url(#SVGID_1_);}
	.st6{fill:none;stroke:#E6E6E6;stroke-miterlimit:10;}
	.st7{fill:none;stroke:#FFC5D5;stroke-miterlimit:10;}
	.st8{fill:url(#SVGID_2_);}
	.st9{fill:url(#SVGID_3_);}
	.st10{fill:url(#SVGID_4_);}
	.st11{fill:url(#SVGID_5_);}
	.st12{fill:url(#SVGID_6_);}
	.st13{fill:url(#SVGID_7_);}
	.st14{fill:url(#SVGID_8_);}
	.st15{fill:url(#SVGID_9_);}
	.st16{fill:url(#Back_1_);}
	.st17{opacity:0.2;}
	.st18{fill:#FFC5D5;}
	.st19{fill:#FFE6ED;}
	.st20{fill:#FFFFAB;}
	.st21{fill:#FFFFFF;}
	.st22{fill:url(#Tummy_1_);}
]]>
</style>
<g>
	<g id="Body_3_">
		<path id="Body_4_" class="st21" d="M208.8,259.2c-2.7,0.9-9.4,0.8-11.3,0.8c-9,0.2-10.9-0.2-17-8.3c-2.6-3.4-8-28.7-8-28.7
			s-41.9-20.4-44.1-23.2c-0.7-1-3.3-6.5-4.1-7.6c-2.2-2.9-2.3-4.5-4.6-7.7c-0.9-1.3-1.4-2.9-2.4-4.8c-0.8-1.5-3.5-6.3-4.2-8
			c-0.8-1.9-1.4-2.9-1.8-5c-0.4-2.3,0-4.3-0.1-6.2c-0.1-3.2-0.5-6.1,0-8.2c0.9-3.7,2.9-7-0.3-11.6c-0.7-0.9-1-3.9-1.5-5.2
			c-1-2.5-1.1-5.1-1.1-8.4c0-1.5,0.4-2.5,1.5-4.9c1.9-3.9,0.5-9.3,0.5-9.3c-0.8-2.3-0.9-4.1-1.1-6.5c-0.3-3-0.3-5-1-8.1
			c-1.2-6,0.3-18,0.6-19.8c1.3,0.6,4.4,2.3,6,3.9c1,1,5.4,4.3,6.5,5.6c1.4,1.6,2.5,2.7,3.7,4.3c1.1,1.5,2.1,3.1,3.3,4.3
			c2,2,1,2.8,4.8,2.7c4-0.2,7.7,0.3,11.6,0.9c4.5,0.7,9.7,0.5,14.4,2c2.6,0.8,5.8,1.1,8.5,1.1c1.6,0,3.9-1.1,5.5-1.4
			c1.8-0.4,2.8-0.9,4.6-1.5c2.4-0.8,4.5-1.5,6.5-2.7c1.4-0.8,2.4-1,3.8-1.8c1.6-0.9,6-2.9,7.2-3.5c-2.1,4.2-8,10.3-10.5,14.7
			c-1.3,2.3-2.6,3.5-3.6,6.4c-1,2.9-1.3,6.2-3.1,8.9c-1.1,1.6-0.2,5.7,0.8,7.3c0.4,0.7,1.5,2,3.2,3.4c1.6,1.3,3.7,1.2,5.6,1.9
			c3.2,1.2,6.1,3.3,7.4,3.8c4.1,1.7,2.1,3.9,4.9,5.8c2.4,1.6,16.6,25.4,17.8,27.3c5.3,9.2,15.4,22.1,16.6,33.5
			C236,219.7,211.9,258.2,208.8,259.2z"/>
		<path id="Tail_2_" class="st21" d="M216.9,255.5c0.6-4.1,23.1-4.8,36.7-4.7c5.7,0.1,8.6,0.1,12.5-0.7c5.9-1.2,11.1-6.8,14.1-9.7
			c2.6-2.5,3.3-4.7,4.5-7c2.1-4.1,2.2-7.5,2.2-12.1c0.1-6.8-3.8-9-6.7-11.3c-3.7-2.9-8.6-5.4-8,2.1c0.2,2.6,2,4.1,2.5,6.3
			c1.8,8.4-3.2,14.6-11.8,18c-4.6,1.8-8.5,1.5-13.5,1.1c-4.6-0.4-9.1-3-11.6-5.1c-3.2-2.7-1.2-7.1-0.4-11.2L216.9,255.5z"/>
		<linearGradient id="Tummy_1_" gradientUnits="userSpaceOnUse" x1="147" y1="257.5" x2="147" y2="206.4902">
			<stop  offset="0.7483" style="stop-color:#E6E6E6"/>
			<stop  offset="1" style="stop-color:#CCCCCC"/>
		</linearGradient>
		<rect id="Tummy_2_" x="123" y="186" class="st22" width="48" height="73"/>
		<path id="Rear_Paw_2_" class="st4" d="M187.3,260.4c0-2,5.7-4.3,9.9-4.3c4.2,0,9.1,1.6,9.1,3.7"/>
		<g id="Front_Paws_3_">
			<path class="st21" d="M174.2,154c-4.2,0-7.6,0.8-7.6,1.5s-3.4,1.5-7.6,1.5h-17c-4.2,0-7.6-0.8-7.6-1.5s-3.4-1.5-7.6-1.5h-7.8
				c-4.2,0-8.1,3.4-8.1,7.6v97.7c0,4.2,3.9,7.7,8.1,7.7h7.8c4.2,0,7.1-3.6,7.1-7.7v-45.9c0-4.2,3.9-7.4,8.1-7.4h17
				c4.2,0,7.9,3.2,7.9,7.4v45.9c0,4.2,3.1,7.7,7.2,7.7h7.8c4.2,0,7.9-3.6,7.9-7.7v-97.7c0-4.2-3.7-7.6-7.9-7.6H174.2z"/>
		</g>
		<linearGradient id="Shadow_1_" gradientUnits="userSpaceOnUse" x1="155.7075" y1="170.9126" x2="155.7075" y2="152.0174">
			<stop  offset="0.5033" style="stop-color:#E6E6E6"/>
			<stop  offset="0.8372" style="stop-color:#CCCCCC"/>
		</linearGradient>
		<path id="Shadow_2_" class="st0" d="M111.3,152.3c0,0-0.9,18,37.9,18.2c49.7,0.3,50.9-25.8,50.9-25.8L111.3,152.3z"/>
		<linearGradient id="Back_1_" gradientUnits="userSpaceOnUse" x1="212.8467" y1="173.0601" x2="200.7652" y2="145.5928">
			<stop  offset="0" style="stop-color:#CCCCCC"/>
			<stop  offset="0.7513" style="stop-color:#E6E6E6"/>
		</linearGradient>
		<path id="Back_2_" class="st16" d="M200.2,172.8c0-3.7-0.1-26.8-0.1-26.8c3,0,29.1,31.6,30,36.9
			C231.3,190.6,200.1,183.2,200.2,172.8z"/>
		<g id="Claws_2_">
			<g>
				<g>
					<path class="st2" d="M116.6,258c0,0,0.3,0.6,0.4,1.6c0.2,1,0.3,2.3,0.3,3.5c0,1.3-0.1,2.6-0.3,3.5c-0.2,1-0.4,1.6-0.4,1.6
						s-0.3-0.6-0.4-1.6c-0.2-1-0.3-2.3-0.3-3.5c0-1.3,0.1-2.6,0.3-3.5C116.3,258.7,116.6,258,116.6,258z"/>
				</g>
				<g>
					<path class="st2" d="M121.3,258c0,0,0.3,0.6,0.4,1.6c0.2,1,0.3,2.3,0.3,3.5c0,1.3-0.1,2.6-0.3,3.5c-0.2,1-0.4,1.6-0.4,1.6
						s-0.3-0.6-0.4-1.6c-0.2-1-0.3-2.3-0.3-3.5c0-1.3,0.1-2.6,0.3-3.5C121,258.7,121.3,258,121.3,258z"/>
				</g>
				<g>
					<path class="st2" d="M126,258c0,0,0.3,0.6,0.4,1.6c0.2,1,0.3,2.3,0.3,3.5c0,1.3-0.1,2.6-0.3,3.5c-0.2,1-0.4,1.6-0.4,1.6
						s-0.3-0.6-0.4-1.6c-0.2-1-0.3-2.3-0.3-3.5c0-1.3,0.1-2.6,0.3-3.5C125.8,258.7,126,258,126,258z"/>
				</g>
			</g>
			<g>
				<g>
					<path class="st2" d="M173.4,258c0,0,0.3,0.6,0.4,1.6c0.2,1,0.3,2.3,0.3,3.5c0,1.3-0.1,2.6-0.3,3.5c-0.2,1-0.4,1.6-0.4,1.6
						s-0.3-0.6-0.4-1.6c-0.2-1-0.3-2.3-0.3-3.5c0-1.3,0.1-2.6,0.3-3.5C173.2,258.7,173.4,258,173.4,258z"/>
				</g>
				<g>
					<path class="st2" d="M178.2,258c0,0,0.3,0.6,0.4,1.6c0.2,1,0.3,2.3,0.3,3.5c0,1.3-0.1,2.6-0.3,3.5c-0.2,1-0.4,1.6-0.4,1.6
						s-0.3-0.6-0.4-1.6c-0.2-1-0.3-2.3-0.3-3.5c0-1.3,0.1-2.6,0.3-3.5C177.9,258.7,178.2,258,178.2,258z"/>
				</g>
				<g>
					<path class="st2" d="M182.9,258c0,0,0.3,0.6,0.4,1.6c0.2,1,0.3,2.3,0.3,3.5c0,1.3-0.1,2.6-0.3,3.5c-0.2,1-0.4,1.6-0.4,1.6
						s-0.3-0.6-0.4-1.6c-0.2-1-0.3-2.3-0.3-3.5c0-1.3,0.1-2.6,0.3-3.5C182.7,258.7,182.9,258,182.9,258z"/>
				</g>
			</g>
		</g>
		<ellipse id="Hindquarters_2_" class="st21" cx="210.3" cy="213.7" rx="27.3" ry="44.7"/>
		<g id="Body_fur_2_">
			<g>
				<g>
					<path class="st2" d="M116,190c0,0,0.3,0.6,0.4,1.6c0.2,1,0.3,2.3,0.3,3.5c0,1.3-0.1,2.6-0.3,3.5c-0.2,1-0.4,1.6-0.4,1.6
						s-0.3-0.6-0.4-1.6c-0.2-1-0.3-2.3-0.3-3.5c0-1.3,0.1-2.6,0.3-3.5C115.7,190.6,116,190,116,190z"/>
				</g>
				<g>
					<path class="st2" d="M120.7,190c0,0,0.3,0.6,0.4,1.6c0.2,1,0.3,2.3,0.3,3.5c0,1.3-0.1,2.6-0.3,3.5c-0.2,1-0.4,1.6-0.4,1.6
						s-0.3-0.6-0.4-1.6c-0.2-1-0.3-2.3-0.3-3.5c0-1.3,0.1-2.6,0.3-3.5C120.5,190.6,120.7,190,120.7,190z"/>
				</g>
				<g>
					<path class="st2" d="M125.5,190c0,0,0.3,0.6,0.4,1.6c0.2,1,0.3,2.3,0.3,3.5c0,1.3-0.1,2.6-0.3,3.5c-0.2,1-0.4,1.6-0.4,1.6
						s-0.3-0.6-0.4-1.6c-0.2-1-0.3-2.3-0.3-3.5c0-1.3,0.1-2.6,0.3-3.5C125.2,190.6,125.5,190,125.5,190z"/>
				</g>
				<g>
					<path class="st2" d="M130.2,190c0,0,0.3,0.6,0.4,1.6c0.2,1,0.3,2.3,0.3,3.5c0,1.3-0.1,2.6-0.3,3.5c-0.2,1-0.4,1.6-0.4,1.6
						s-0.3-0.6-0.4-1.6c-0.2-1-0.3-2.3-0.3-3.5c0-1.3,0.1-2.6,0.3-3.5C129.9,190.6,130.2,190,130.2,190z"/>
				</g>
			</g>
			<g>
				<g>
					<path class="st2" d="M170.7,190c0,0,0.3,0.6,0.4,1.6c0.2,1,0.3,2.3,0.3,3.5c0,1.3-0.1,2.6-0.3,3.5c-0.2,1-0.4,1.6-0.4,1.6
						s-0.3-0.6-0.4-1.6c-0.2-1-0.3-2.3-0.3-3.5c0-1.3,0.1-2.6,0.3-3.5C170.4,190.6,170.7,190,170.7,190z"/>
				</g>
				<g>
					<path class="st2" d="M175.4,190c0,0,0.3,0.6,0.4,1.6c0.2,1,0.3,2.3,0.3,3.5c0,1.3-0.1,2.6-0.3,3.5c-0.2,1-0.4,1.6-0.4,1.6
						s-0.3-0.6-0.4-1.6c-0.2-1-0.3-2.3-0.3-3.5c0-1.3,0.1-2.6,0.3-3.5C175.2,190.6,175.4,190,175.4,190z"/>
				</g>
				<g>
					<path class="st2" d="M180.2,190c0,0,0.3,0.6,0.4,1.6c0.2,1,0.3,2.3,0.3,3.5c0,1.3-0.1,2.6-0.3,3.5c-0.2,1-0.4,1.6-0.4,1.6
						s-0.3-0.6-0.4-1.6c-0.2-1-0.3-2.3-0.3-3.5c0-1.3,0.1-2.6,0.3-3.5C179.9,190.6,180.2,190,180.2,190z"/>
				</g>
				<g>
					<path class="st2" d="M184.9,190c0,0,0.3,0.6,0.4,1.6c0.2,1,0.3,2.3,0.3,3.5c0,1.3-0.1,2.6-0.3,3.5c-0.2,1-0.4,1.6-0.4,1.6
						s-0.3-0.6-0.4-1.6c-0.2-1-0.3-2.3-0.3-3.5c0-1.3,0.1-2.6,0.3-3.5C184.7,190.6,184.9,190,184.9,190z"/>
				</g>
			</g>
			<g>
				<g>
					<path class="st2" d="M211,207.9c0,0,0.3,0.6,0.4,1.6c0.2,1,0.3,2.3,0.3,3.5c0,1.3-0.1,2.6-0.3,3.5c-0.2,1-0.4,1.6-0.4,1.6
						s-0.3-0.6-0.4-1.6c-0.2-1-0.3-2.3-0.3-3.5c0-1.3,0.1-2.6,0.3-3.5C210.7,208.5,211,207.9,211,207.9z"/>
				</g>
				<g>
					<path class="st2" d="M215.7,207.9c0,0,0.3,0.6,0.4,1.6c0.2,1,0.3,2.3,0.3,3.5c0,1.3-0.1,2.6-0.3,3.5c-0.2,1-0.4,1.6-0.4,1.6
						s-0.3-0.6-0.4-1.6c-0.2-1-0.3-2.3-0.3-3.5c0-1.3,0.1-2.6,0.3-3.5C215.5,208.5,215.7,207.9,215.7,207.9z"/>
				</g>
				<g>
					<path class="st2" d="M220.5,207.9c0,0,0.3,0.6,0.4,1.6c0.2,1,0.3,2.3,0.3,3.5c0,1.3-0.1,2.6-0.3,3.5c-0.2,1-0.4,1.6-0.4,1.6
						s-0.3-0.6-0.4-1.6c-0.2-1-0.3-2.3-0.3-3.5c0-1.3,0.1-2.6,0.3-3.5C220.2,208.5,220.5,207.9,220.5,207.9z"/>
				</g>
				<g>
					<path class="st2" d="M225.2,207.9c0,0,0.3,0.6,0.4,1.6c0.2,1,0.3,2.3,0.3,3.5c0,1.3-0.1,2.6-0.3,3.5c-0.2,1-0.4,1.6-0.4,1.6
						s-0.3-0.6-0.4-1.6c-0.2-1-0.3-2.3-0.3-3.5c0-1.3,0.1-2.6,0.3-3.5C225,208.5,225.2,207.9,225.2,207.9z"/>
				</g>
			</g>
			<g>
				<g>
					<path class="st2" d="M214.2,221.2c0,0,0.3,0.6,0.4,1.6c0.2,1,0.3,2.3,0.3,3.5c0,1.3-0.1,2.6-0.3,3.5c-0.2,1-0.4,1.6-0.4,1.6
						s-0.3-0.6-0.4-1.6c-0.2-1-0.3-2.3-0.3-3.5c0-1.3,0.1-2.6,0.3-3.5C213.9,221.8,214.2,221.2,214.2,221.2z"/>
				</g>
				<g>
					<path class="st2" d="M218.9,221.2c0,0,0.3,0.6,0.4,1.6c0.2,1,0.3,2.3,0.3,3.5c0,1.3-0.1,2.6-0.3,3.5c-0.2,1-0.4,1.6-0.4,1.6
						s-0.3-0.6-0.4-1.6c-0.2-1-0.3-2.3-0.3-3.5c0-1.3,0.1-2.6,0.3-3.5C218.6,221.8,218.9,221.2,218.9,221.2z"/>
				</g>
				<g>
					<path class="st2" d="M223.6,221.2c0,0,0.3,0.6,0.4,1.6c0.2,1,0.3,2.3,0.3,3.5c0,1.3-0.1,2.6-0.3,3.5c-0.2,1-0.4,1.6-0.4,1.6
						s-0.3-0.6-0.4-1.6c-0.2-1-0.3-2.3-0.3-3.5c0-1.3,0.1-2.6,0.3-3.5C223.4,221.8,223.6,221.2,223.6,221.2z"/>
				</g>
			</g>
		</g>
		
			<radialGradient id="SVGID_1_" cx="150.75" cy="155.7012" r="44.2918" gradientTransform="matrix(1 0 0 0.7146 0 37.1398)" gradientUnits="userSpaceOnUse">
			<stop  offset="0.2276" style="stop-color:#B0B0B0"/>
			<stop  offset="1" style="stop-color:#FFFFFF"/>
		</radialGradient>
		<rect x="111" y="147" class="st5" width="89" height="38"/>
	</g>
	<g id="New_head">
		<g id="Left_Ear_4_">
			<path class="st21" d="M74.3,90.1c-10.1-24.7-7-83.6-5.7-75.7c1.6,9.2,31.3,22.3,34,37.3C104.2,60.4,79.3,102.3,74.3,90.1z"/>
			<linearGradient id="SVGID_2_" gradientUnits="userSpaceOnUse" x1="72.2559" y1="57.5659" x2="87.106" y2="38.454">
				<stop  offset="0.7184" style="stop-color:#FFC5D5"/>
				<stop  offset="1" style="stop-color:#FFFFFF"/>
			</linearGradient>
			<path class="st8" d="M77,81.6c-7.7-18.9-8.4-67.2-6.8-58.1c0.7,3.8,25.6,15.3,28.4,28.7C100.1,58.9,80.8,91,77,81.6z"/>
		</g>
		<g id="Left_Ear_5_">
			<path class="st21" d="M224.6,90.1c10.1-24.7,7-83.6,5.7-75.7c-1.6,9.2-31.3,22.3-34,37.3C194.7,60.4,219.5,102.3,224.6,90.1z"/>
			
				<linearGradient id="SVGID_3_" gradientUnits="userSpaceOnUse" x1="693.2559" y1="57.5659" x2="708.1062" y2="38.4537" gradientTransform="matrix(-1 0 0 1 919.8848 0)">
				<stop  offset="0.7184" style="stop-color:#FFC5D5"/>
				<stop  offset="1" style="stop-color:#FFFFFF"/>
			</linearGradient>
			<path class="st9" d="M221.9,81.6c7.7-18.9,8.4-67.2,6.8-58.1c-0.7,3.8-25.6,15.3-28.4,28.7C198.8,58.9,218,91,221.9,81.6z"/>
		</g>
		<path id="Head_2_" class="st21" d="M227.5,111.7c-12.9,44.2-35,42.3-78.2,42.3c-43.2,0-64.4,4.5-78.2-42.3
			c-12.9-43.6,23.6-82.3,78.2-82.3C201.1,29.4,240.3,68,227.5,111.7z"/>
		<path id="Jaw" class="st21" d="M166.8,142.2c0,18.1-11,22.9-18.2,22.9c-9.7,0-16.9-5.8-16.9-22.9c0-34.6,8-19.7,17.7-19.7
			S166.7,107.6,166.8,142.2z"/>
		<g id="Left_Eye_2_">
			<path class="st1" d="M128.3,91.5c0,9.6-6,17.3-13.9,17.4c-7.9,0.1-13.9-7.8-13.9-17.4c0-9.6,4.1-17.2,13.9-17.4
				C124.1,73.9,128.3,81.9,128.3,91.5z"/>
			<linearGradient id="SVGID_4_" gradientUnits="userSpaceOnUse" x1="103.0615" y1="91.502" x2="125.75" y2="91.502">
				<stop  offset="1.355230e-03" style="stop-color:#666666"/>
				<stop  offset="0.4792" style="stop-color:#000000"/>
				<stop  offset="1" style="stop-color:#666666"/>
			</linearGradient>
			<path class="st10" d="M125.8,91.5c0,7.8-4.9,14.1-11.3,14.2c-6.4,0.1-11.3-6.4-11.3-14.2s3.4-14,11.3-14.2
				C122.4,77.1,125.8,83.7,125.8,91.5z"/>
			<linearGradient id="SVGID_5_" gradientUnits="userSpaceOnUse" x1="111.1616" y1="114.1973" x2="111.1616" y2="76.7439">
				<stop  offset="0.6295" style="stop-color:#404040;stop-opacity:0"/>
				<stop  offset="1" style="stop-color:#404040"/>
			</linearGradient>
			<path class="st11" d="M130.5,103.7c1.9-2.1-1.6-25.6-19.3-28.1C94,73,87.6,98.3,93.4,106.7C96.2,110.8,125.6,109.1,130.5,103.7z"
				/>
			<path class="st17" d="M111.2,75.5c-10.7-2.3-12.9,3.4-16.5,9.2c18-2.1,34,8.9,35.4,19.3c0.2-0.1,0.3-0.3,0.4-0.4
				C132.4,101.6,128.7,79.3,111.2,75.5z"/>
			<path class="st6" d="M130.5,103.7c1.9-2.1-1.5-26.7-19.3-28.1c-16.9-1.4-19.7,14.3-19.1,28.2C92.3,107.4,125.6,109.1,130.5,103.7
				z"/>
			<path class="st21" d="M109.3,67.4C94.8,67.4,83,79.2,83,93.7s11.8,26.3,26.3,26.3s26.3-11.8,26.3-26.3S123.9,67.4,109.3,67.4z
				 M92.1,103.7c-0.6-13.9,2.2-29.6,19.1-28.2c17.8,1.5,21.2,26.1,19.3,28.1C125.6,109.1,92.3,107.4,92.1,103.7z"/>
		</g>
		<g id="Right_Eye">
			<path class="st20" d="M169.3,91.5c0,9.6,6,17.3,13.9,17.4c7.9,0.1,13.9-7.8,13.9-17.4c0-9.6-4.1-17.2-13.9-17.4
				C173.5,73.9,169.3,81.9,169.3,91.5z"/>
			
				<linearGradient id="SVGID_6_" gradientUnits="userSpaceOnUse" x1="568.0615" y1="91.502" x2="590.75" y2="91.502" gradientTransform="matrix(-1 0 0 1 762.623 0)">
				<stop  offset="1.355230e-03" style="stop-color:#666666"/>
				<stop  offset="0.4792" style="stop-color:#000000"/>
				<stop  offset="1" style="stop-color:#666666"/>
			</linearGradient>
			<path class="st12" d="M171.9,91.5c0,7.8,4.9,14.1,11.3,14.2c6.4,0.1,11.3-6.4,11.3-14.2s-3.4-14-11.3-14.2
				C175.2,77.1,171.9,83.7,171.9,91.5z"/>
			
				<linearGradient id="SVGID_7_" gradientUnits="userSpaceOnUse" x1="576.1621" y1="114.1963" x2="576.1621" y2="76.7435" gradientTransform="matrix(-1 0 0 1 762.623 0)">
				<stop  offset="0.6295" style="stop-color:#404040;stop-opacity:0"/>
				<stop  offset="1" style="stop-color:#404040"/>
			</linearGradient>
			<path class="st13" d="M167.1,103.7c-1.9-2.1,1.6-25.6,19.3-28.1c17.2-2.5,23.6,22.8,17.8,31.2C201.4,110.8,172,109.1,167.1,103.7
				z"/>
			<path class="st17" d="M186.4,75.5c10.7-2.3,12.9,3.4,16.5,9.2c-18-2.1-34,8.9-35.4,19.3c-0.2-0.1-0.3-0.3-0.4-0.4
				C165.2,101.6,168.9,79.3,186.4,75.5z"/>
			<path class="st6" d="M167.1,103.7c-1.9-2.1,1.5-26.7,19.3-28.1c16.9-1.4,19.7,14.3,19.1,28.2C205.4,107.4,172,109.1,167.1,103.7z
				"/>
			<path class="st21" d="M162,93.7c0,14.5,11.8,26.3,26.3,26.3s26.3-11.8,26.3-26.3s-11.8-26.3-26.3-26.3S162,79.2,162,93.7z
				 M167.1,103.7c-1.9-2.1,1.5-26.7,19.3-28.1c16.9-1.4,19.7,14.3,19.1,28.2C205.4,107.4,172,109.1,167.1,103.7z"/>
		</g>
		<g id="Mouth">
			<path class="st7" d="M136,151.5h2.6c5,0,9.5-0.8,9.9-4.7V129"/>
		</g>
		<g id="Mouth_1_">
			<path class="st7" d="M162,151.5h-2.1c-5,0-9.4-0.8-10.4-4.7V129"/>
		</g>
		<g id="Nose">
			<path class="st18" d="M160,117.4c-4.2-0.2-8.2,0.9-11.2,0.9c-3.9,0-6.6-0.6-11.2-0.9c-4.1-0.2-6.1,0.5-5,4.7
				c1,4.2,15.2,8.4,16.3,8.4c1.4,0,15.1-4.3,16.1-8.4C166,117.9,164.1,117.6,160,117.4z"/>
			<linearGradient id="SVGID_8_" gradientUnits="userSpaceOnUse" x1="159.1064" y1="125.2954" x2="157.402" y2="121.715">
				<stop  offset="0.5936" style="stop-color:#FFC5D5"/>
				<stop  offset="1" style="stop-color:#B38A95"/>
			</linearGradient>
			<path class="st14" d="M162.3,121.3c0.3,1-1.4,2.4-3.9,3.2c-2.5,0.8-4.7,0.6-5-0.3c-0.3-1,1.5-2,4-2.8
				C159.9,120.6,162,120.3,162.3,121.3z"/>
			
				<linearGradient id="SVGID_9_" gradientUnits="userSpaceOnUse" x1="927.7324" y1="125.2959" x2="926.0275" y2="121.7145" gradientTransform="matrix(-1 0 0 1 1065.6055 0)">
				<stop  offset="0.5936" style="stop-color:#FFC5D5"/>
				<stop  offset="1" style="stop-color:#B38A95"/>
			</linearGradient>
			<path class="st15" d="M134.6,121.3c-0.3,1,1.4,2.4,3.9,3.2c2.5,0.8,4.7,0.6,5-0.3s-1.5-2-4-2.8
				C137.1,120.6,135,120.3,134.6,121.3z"/>
			<path class="st19" d="M159.4,118.8c0,0-3.4,3.1-10.7,3.1c-6.8,0-10.7-3.1-10.7-3.1c0-1,4.8,0.6,10.7,0.6
				C154.6,119.4,159.4,117.7,159.4,118.8z"/>
		</g>
		<g id="Whiskers">
			<g id="Whisker">
				<ellipse class="st3" cx="136.3" cy="133.1" rx="1.6" ry="1.3"/>
				<g>
					<path class="st3" d="M135.8,133.3C135.8,133.3,135.8,133.3,135.8,133.3C135.8,133.3,135.8,133.4,135.8,133.3
						c0,0.1,0.2,0.2,0.1,0.1c-0.1,0-0.2-0.1-0.4-0.1c-0.5-0.1-1.2-0.2-2.1-0.3c-1.8-0.2-4.5-0.4-7.6-0.6c-6.4-0.4-14.8-0.6-23.3-0.3
						c-8.5,0.2-17,0.8-23.3,1.7c-3.2,0.4-5.8,0.9-7.6,1.2c-1.8,0.4-2.9,0.6-2.9,0.6s1-0.3,2.9-0.6c1.8-0.4,4.4-0.9,7.6-1.3
						c6.3-0.9,14.8-1.7,23.3-2c8.5-0.3,17-0.3,23.4,0c3.2,0.1,5.8,0.3,7.7,0.5c0.9,0.1,1.7,0.2,2.2,0.3c0.3,0.1,0.5,0.1,0.6,0.2
						c0.1,0,0.4,0.3,0.4,0.3c0,0,0,0,0,0L135.8,133.3z"/>
				</g>
			</g>
			<g id="Whisker_1_">
				<ellipse class="st3" cx="138.3" cy="138.1" rx="1.6" ry="1.3"/>
				<g>
					<path class="st3" d="M137.8,138.3C137.8,138.3,137.8,138.3,137.8,138.3C137.8,138.3,137.8,138.2,137.8,138.3
						c0,0.1,0.1,0.1,0.1,0.2c0.1,0.1,0.1,0,0,0c-0.1,0-0.3,0-0.6-0.1c-0.6,0-1.5,0-2.6,0c-2.2,0-5.4,0.2-9.3,0.4
						c-7.7,0.5-17.9,1.3-28.2,2.3c-10.2,1-20.4,2.3-28,3.5c-7.6,1.2-12.6,2.3-12.6,2.3s5-1.2,12.6-2.5c7.6-1.3,17.8-2.7,28-3.9
						c10.2-1.2,20.5-2.1,28.2-2.7c3.8-0.3,7.1-0.5,9.3-0.5c1.1,0,2,0,2.6,0c0.3,0,0.6,0,0.8,0.1c0.1,0,0.2,0,0.4,0.2
						c0.1,0.1,0.1,0.1,0.2,0.2c0,0,0,0,0,0.1c0,0,0,0,0,0L137.8,138.3z"/>
				</g>
			</g>
			<g id="Whisker_2_">
				<ellipse class="st3" cx="136.3" cy="142.1" rx="1.6" ry="1.3"/>
				<g>
					<path class="st3" d="M135.8,142.3C135.8,142.3,135.8,142.3,135.8,142.3c0-0.1,0,0.2,0.2,0.2c0.1,0,0,0,0,0c-0.1,0-0.4,0-0.7,0
						c-0.6,0-1.6,0.1-2.8,0.3c-2.4,0.3-5.8,0.8-10,1.5c-8.2,1.4-19.2,3.3-30.2,5.4c-11,2-21.9,4.2-30.1,5.9
						c-8.2,1.7-13.6,2.9-13.6,2.9s5.4-1.3,13.6-3c8.2-1.8,19.1-4,30-6.2c10.9-2.2,21.9-4.3,30.1-5.7c4.1-0.7,7.6-1.3,10-1.6
						c1.2-0.2,2.2-0.3,2.8-0.3c0.3,0,0.6,0,0.8,0c0.1,0,0.2,0,0.4,0.1c0.2,0.1,0.3,0.4,0.3,0.3c0,0,0,0,0,0L135.8,142.3z"/>
				</g>
			</g>
			<g id="Whisker_5_">
				<ellipse class="st3" cx="162.3" cy="133.1" rx="1.6" ry="1.3"/>
				<g>
					<path class="st3" d="M161.8,133C161.8,133,161.8,132.9,161.8,133c0-0.1,0.3-0.4,0.4-0.4c0.2-0.1,0.4-0.1,0.6-0.2
						c0.5-0.1,1.3-0.2,2.2-0.3c1.9-0.2,4.5-0.4,7.7-0.5c6.4-0.3,14.9-0.3,23.4,0c8.5,0.3,17,1.1,23.3,2c3.2,0.5,5.8,0.9,7.6,1.3
						c1.8,0.4,2.9,0.6,2.9,0.6s-1-0.2-2.9-0.6c-1.8-0.4-4.4-0.8-7.6-1.2c-6.3-0.8-14.8-1.5-23.3-1.7c-8.5-0.2-17,0-23.3,0.3
						c-3.2,0.2-5.8,0.4-7.6,0.6c-0.9,0.1-1.6,0.2-2.1,0.3c-0.2,0.1-0.4,0.1-0.4,0.1c-0.1,0,0.1,0,0.1-0.1c0,0,0.1-0.1,0-0.1
						c0,0,0,0,0,0L161.8,133z"/>
				</g>
			</g>
			<g id="Whisker_4_">
				<ellipse class="st3" cx="160.3" cy="138.1" rx="1.6" ry="1.3"/>
				<g>
					<path class="st3" d="M159.8,138C159.8,138,159.8,138,159.8,138C159.8,138,159.8,137.9,159.8,138c0.1-0.1,0.1-0.2,0.2-0.3
						c0.2-0.1,0.3-0.1,0.4-0.2c0.2,0,0.4-0.1,0.8-0.1c0.6,0,1.5,0,2.6,0c2.3,0.1,5.5,0.2,9.3,0.5c7.7,0.5,17.9,1.5,28.2,2.7
						c10.2,1.2,20.4,2.6,28,3.9c7.6,1.3,12.6,2.5,12.6,2.5s-5-1.2-12.6-2.3c-7.6-1.2-17.8-2.5-28-3.5c-10.2-1-20.5-1.9-28.2-2.3
						c-3.8-0.2-7.1-0.4-9.3-0.4c-1.1,0-2,0-2.6,0c-0.3,0-0.5,0-0.6,0.1c0,0-0.1,0,0,0c0.1,0,0.1-0.1,0.1-0.2c0-0.1,0,0,0,0
						c0,0,0,0,0,0L159.8,138z"/>
				</g>
			</g>
			<g id="Whisker_3_">
				<ellipse class="st3" cx="162.3" cy="142.1" rx="1.6" ry="1.3"/>
				<g>
					<path class="st3" d="M161.8,142C161.8,142,161.8,142,161.8,142c0,0,0.1-0.2,0.3-0.3c0.1-0.1,0.3-0.1,0.4-0.1c0.2,0,0.5,0,0.8,0
						c0.7,0.1,1.6,0.2,2.8,0.3c2.4,0.3,5.9,0.9,10,1.6c8.2,1.5,19.2,3.5,30.1,5.7c10.9,2.2,21.9,4.4,30,6.2c8.2,1.8,13.6,3,13.6,3
						s-5.4-1.2-13.6-2.9c-8.2-1.7-19.1-3.8-30.1-5.9c-11-2-21.9-4-30.2-5.4c-4.1-0.7-7.6-1.2-10-1.5c-1.2-0.2-2.2-0.3-2.8-0.3
						c-0.3,0-0.6,0-0.7,0c-0.1,0-0.1,0,0,0c0.2-0.1,0.3-0.3,0.2-0.2c0,0,0,0,0,0L161.8,142z"/>
				</g>
			</g>
		</g>
		<g id="Face_fur_2_">
			<g>
				<g>
					<path class="st2" d="M143.3,103.7c0,0,0.2,0.6,0.4,1.5c0.1,0.4,0.2,1,0.2,1.5c0.1,0.6,0.1,1.2,0.1,1.8c0,1.2-0.1,2.4-0.3,3.3
						c-0.2,0.9-0.4,1.5-0.4,1.5s-0.2-0.6-0.4-1.5c-0.2-0.9-0.3-2.1-0.3-3.3c0-0.6,0-1.2,0.1-1.8c0-0.6,0.1-1.1,0.2-1.5
						C143.1,104.3,143.3,103.7,143.3,103.7z"/>
				</g>
				<g>
					<path class="st2" d="M147.4,103.7c0,0,0.2,0.6,0.4,1.5c0.1,0.4,0.2,1,0.2,1.5c0.1,0.6,0.1,1.2,0.1,1.8c0,1.2-0.1,2.4-0.3,3.3
						c-0.2,0.9-0.4,1.5-0.4,1.5s-0.2-0.6-0.4-1.5c-0.2-0.9-0.3-2.1-0.3-3.3c0-0.6,0-1.2,0.1-1.8c0-0.6,0.1-1.1,0.2-1.5
						C147.2,104.3,147.4,103.7,147.4,103.7z"/>
				</g>
				<g>
					<path class="st2" d="M151.5,103.7c0,0,0.2,0.6,0.4,1.5c0.1,0.4,0.2,1,0.2,1.5c0.1,0.6,0.1,1.2,0.1,1.8c0,1.2-0.1,2.4-0.3,3.3
						c-0.2,0.9-0.4,1.5-0.4,1.5s-0.2-0.6-0.4-1.5c-0.2-0.9-0.3-2.1-0.3-3.3c0-0.6,0-1.2,0.1-1.8c0-0.6,0.1-1.1,0.2-1.5
						C151.3,104.3,151.5,103.7,151.5,103.7z"/>
				</g>
				<g>
					<path class="st2" d="M155.6,103.7c0,0,0.2,0.6,0.4,1.5c0.1,0.4,0.2,1,0.2,1.5c0.1,0.6,0.1,1.2,0.1,1.8c0,1.2-0.1,2.4-0.3,3.3
						c-0.2,0.9-0.4,1.5-0.4,1.5s-0.2-0.6-0.4-1.5c-0.2-0.9-0.3-2.1-0.3-3.3c0-0.6,0-1.2,0.1-1.8c0-0.6,0.1-1.1,0.2-1.5
						C155.4,104.3,155.6,103.7,155.6,103.7z"/>
				</g>
			</g>
			<g>
				<g>
					<path class="st2" d="M146.1,92.8c0,0,0.2,0.6,0.4,1.5c0.1,0.4,0.2,1,0.2,1.5c0.1,0.6,0.1,1.2,0.1,1.8c0,1.2-0.1,2.4-0.3,3.3
						c-0.2,0.9-0.4,1.5-0.4,1.5s-0.2-0.6-0.4-1.5c-0.2-0.9-0.3-2.1-0.3-3.3c0-0.6,0-1.2,0.1-1.8c0-0.6,0.1-1.1,0.2-1.5
						C145.8,93.4,146.1,92.8,146.1,92.8z"/>
				</g>
				<g>
					<path class="st2" d="M150.2,92.8c0,0,0.2,0.6,0.4,1.5c0.1,0.4,0.2,1,0.2,1.5c0.1,0.6,0.1,1.2,0.1,1.8c0,1.2-0.1,2.4-0.3,3.3
						c-0.2,0.9-0.4,1.5-0.4,1.5s-0.2-0.6-0.4-1.5c-0.2-0.9-0.3-2.1-0.3-3.3c0-0.6,0-1.2,0.1-1.8c0-0.6,0.1-1.1,0.2-1.5
						C149.9,93.4,150.2,92.8,150.2,92.8z"/>
				</g>
				<g>
					<path class="st2" d="M154.2,92.8c0,0,0.2,0.6,0.4,1.5c0.1,0.4,0.2,1,0.2,1.5c0.1,0.6,0.1,1.2,0.1,1.8c0,1.2-0.1,2.4-0.3,3.3
						c-0.2,0.9-0.4,1.5-0.4,1.5s-0.2-0.6-0.4-1.5c-0.2-0.9-0.3-2.1-0.3-3.3c0-0.6,0-1.2,0.1-1.8c0-0.6,0.1-1.1,0.2-1.5
						C154,93.4,154.2,92.8,154.2,92.8z"/>
				</g>
			</g>
			<g>
				<g>
					<path class="st2" d="M147.4,81.9c0,0,0.2,0.6,0.4,1.5c0.1,0.4,0.2,1,0.2,1.5c0.1,0.6,0.1,1.2,0.1,1.8c0,1.2-0.1,2.4-0.3,3.3
						c-0.2,0.9-0.4,1.5-0.4,1.5s-0.2-0.6-0.4-1.5c-0.2-0.9-0.3-2.1-0.3-3.3c0-0.6,0-1.2,0.1-1.8c0-0.6,0.1-1.1,0.2-1.5
						C147.2,82.5,147.4,81.9,147.4,81.9z"/>
				</g>
				<g>
					<path class="st2" d="M151.5,81.9c0,0,0.2,0.6,0.4,1.5c0.1,0.4,0.2,1,0.2,1.5c0.1,0.6,0.1,1.2,0.1,1.8c0,1.2-0.1,2.4-0.3,3.3
						c-0.2,0.9-0.4,1.5-0.4,1.5s-0.2-0.6-0.4-1.5c-0.2-0.9-0.3-2.1-0.3-3.3c0-0.6,0-1.2,0.1-1.8c0-0.6,0.1-1.1,0.2-1.5
						C151.3,82.5,151.5,81.9,151.5,81.9z"/>
				</g>
			</g>
		</g>
	</g>
</g>
</svg>
